# xmcd
#
# Track frame offsets:
#	150
#	68500
#	134975
#
# Disc length: 2641
#
# Revision: 4
# Processed by: cddbd v1.5.1PL0 Copyright (c) Steve Scherf et al.
# Submitted via: CDex 1.51
# Normalized: r3:TRMNUM
#
DISCID=290a4f03
DTITLE=齊豫 - 唱經給你聽之一  順心 (因此更美麗)
DYEAR=2004
DGENRE=New Age
TTITLE0=懺悔文
TTITLE1=大吉祥天女咒
TTITLE2=般若波羅密多心經
EXTD=YEAR: 2004
EXTT0=
EXTT1=
EXTT2=
PLAYORDER=
